G75*
%MOIN*%
%OFA0B0*%
%FSLAX24Y24*%
%IPPOS*%
%LPD*%
%AMOC8*
5,1,8,0,0,1.08239X$1,22.5*
%
%ADD10C,0.1025*%
%ADD11C,0.1143*%
%ADD12C,0.1917*%
%ADD13R,0.0580X0.0580*%
%ADD14C,0.0580*%
%ADD15C,0.0680*%
%ADD16R,0.1655X0.0580*%
%ADD17C,0.1694*%
%ADD18R,0.0476X0.0476*%
D10*
X002094Y013520D03*
D11*
X003865Y013520D03*
D12*
X017894Y004020D03*
D13*
X027194Y014420D03*
X032794Y014420D03*
D14*
X032006Y014420D03*
X031219Y014420D03*
X030431Y014420D03*
X029644Y014420D03*
X028856Y014420D03*
X026406Y014420D03*
X025619Y014420D03*
X024831Y014420D03*
D15*
X022694Y015420D02*
X022694Y016020D01*
X021694Y016020D02*
X021694Y015420D01*
X020694Y015420D02*
X020694Y016020D01*
X020694Y005120D02*
X020694Y004520D01*
X021694Y004520D02*
X021694Y005120D01*
X022694Y005120D02*
X022694Y004520D01*
X022694Y002620D02*
X022694Y002020D01*
X021694Y002020D02*
X021694Y002620D01*
X020694Y002620D02*
X020694Y002020D01*
D16*
X037494Y005620D03*
X037494Y006620D03*
X037494Y007620D03*
X037494Y008620D03*
X037494Y009620D03*
X037494Y010620D03*
X037494Y011620D03*
X037494Y012620D03*
X037494Y013620D03*
X037494Y014620D03*
D17*
X035794Y002920D03*
X008194Y013520D03*
D18*
X005894Y011320D03*
X003294Y011320D03*
X015594Y011020D03*
X016194Y011020D03*
X016194Y010320D03*
X015594Y010320D03*
X018394Y010320D03*
X019594Y010620D03*
X018394Y011020D03*
X018394Y011720D03*
X022394Y011720D03*
X023094Y012020D03*
X023594Y012320D03*
X023094Y012620D03*
X022394Y012320D03*
X022394Y013020D03*
X023494Y013320D03*
X023494Y013920D03*
X023494Y014520D03*
X024094Y014720D03*
X024794Y013620D03*
X027194Y012320D03*
X024794Y011920D03*
X024094Y011220D03*
X027194Y010820D03*
X027894Y010720D03*
X029994Y010620D03*
X029994Y009920D03*
X031794Y009920D03*
X031794Y010620D03*
X035294Y010420D03*
X035294Y011420D03*
X035294Y012420D03*
X035294Y013320D03*
X033844Y013420D03*
X033194Y012920D03*
X033194Y012320D03*
X030794Y013720D03*
X028094Y013420D03*
X033994Y015020D03*
X035094Y015320D03*
X035594Y015320D03*
X035294Y014220D03*
X037994Y015420D03*
X037994Y016020D03*
X024094Y009820D03*
X023794Y008520D03*
X023694Y007720D03*
X022294Y007420D03*
X020294Y007420D03*
X018394Y008920D03*
X018394Y009620D03*
X024594Y006620D03*
X025294Y006620D03*
X025294Y005920D03*
X024594Y005920D03*
X029394Y008120D03*
X029994Y008120D03*
X030894Y007670D03*
X032894Y007020D03*
X032894Y006420D03*
X035294Y006420D03*
X035294Y007420D03*
X035294Y008420D03*
X035294Y009420D03*
X027194Y008220D03*
X035294Y005420D03*
X028894Y001320D03*
X024294Y002020D03*
M02*
