G75*
%MOIN*%
%OFA0B0*%
%FSLAX24Y24*%
%IPPOS*%
%LPD*%
%AMOC8*
5,1,8,0,0,1.08239X$1,22.5*
%
%ADD10C,0.0945*%
%ADD11C,0.1063*%
%ADD12R,0.3661X0.0945*%
%ADD13R,0.1181X0.0945*%
%ADD14R,0.0709X0.0689*%
%ADD15C,0.1837*%
%ADD16R,0.0880X0.0480*%
%ADD17R,0.0866X0.1417*%
%ADD18R,0.0551X0.0709*%
%ADD19R,0.0650X0.0453*%
%ADD20R,0.0236X0.0866*%
%ADD21R,0.0354X0.0374*%
%ADD22R,0.0354X0.0394*%
%ADD23C,0.0256*%
%ADD24R,0.0394X0.0354*%
%ADD25R,0.0177X0.0315*%
%ADD26R,0.0870X0.0240*%
%ADD27R,0.0374X0.0354*%
%ADD28R,0.0217X0.0236*%
%ADD29R,0.0500X0.0500*%
%ADD30C,0.0500*%
%ADD31R,0.0700X0.2000*%
%ADD32C,0.0600*%
%ADD33R,0.1575X0.0500*%
%ADD34R,0.0866X0.0236*%
%ADD35R,0.0453X0.0650*%
%ADD36R,0.0394X0.0551*%
%ADD37C,0.0160*%
%ADD38R,0.0396X0.0396*%
%ADD39C,0.0320*%
%ADD40C,0.0240*%
%ADD41C,0.0120*%
%ADD42C,0.0660*%
%ADD43C,0.0500*%
%ADD44C,0.0100*%
D10*
X002094Y013520D03*
D11*
X003865Y013520D03*
D12*
X003314Y015725D03*
D13*
X004495Y011315D03*
X002094Y011315D03*
D14*
X017894Y005408D03*
X017894Y002593D03*
D15*
X017894Y004020D03*
D16*
X021174Y011410D03*
X021174Y012320D03*
X021174Y013230D03*
D17*
X023614Y012320D03*
D18*
X022763Y014120D03*
X021424Y014120D03*
D19*
X020094Y014211D03*
X020094Y013029D03*
X020094Y012311D03*
X020094Y011129D03*
D20*
X021044Y009244D03*
X021544Y009244D03*
X022044Y009244D03*
X022544Y009244D03*
X022544Y007196D03*
X022044Y007196D03*
X021544Y007196D03*
X021044Y007196D03*
D21*
X023579Y009220D03*
X024208Y009220D03*
X026379Y007320D03*
X027008Y007320D03*
X030179Y007220D03*
X030808Y007220D03*
X025008Y012720D03*
X024379Y012720D03*
X032079Y001120D03*
X032708Y001120D03*
D22*
X028908Y003570D03*
X028279Y003570D03*
X028008Y004170D03*
X027379Y004170D03*
X021558Y006520D03*
X020929Y006520D03*
X021379Y010320D03*
X022008Y010320D03*
X035079Y016020D03*
X035708Y016020D03*
D23*
X036594Y015994D02*
X036888Y015994D01*
X037499Y015620D02*
X037793Y015620D01*
X036888Y015246D02*
X036594Y015246D01*
D24*
X036194Y015305D03*
X036194Y015935D03*
X020294Y008635D03*
X020294Y008005D03*
X028094Y005285D03*
X028094Y004655D03*
X032094Y003435D03*
X032094Y002805D03*
X032094Y002235D03*
X032094Y001605D03*
X027894Y001755D03*
X027894Y002385D03*
X025094Y002635D03*
X025094Y002005D03*
D25*
X023842Y009875D03*
X023468Y009875D03*
X023094Y009875D03*
X023094Y010820D03*
X023468Y010820D03*
X023842Y010820D03*
D26*
X029069Y010870D03*
X029069Y010370D03*
X029069Y009870D03*
X029069Y009370D03*
X029069Y008870D03*
X032709Y008870D03*
X032719Y009370D03*
X032719Y009870D03*
X032719Y010370D03*
X032719Y010870D03*
X032719Y011370D03*
X032719Y011870D03*
X032719Y012370D03*
X032719Y012870D03*
X032719Y013370D03*
X029069Y013370D03*
X029069Y012870D03*
X029069Y012370D03*
X029069Y011870D03*
X029069Y011370D03*
D27*
X033894Y013805D03*
X033894Y014435D03*
X022594Y010735D03*
X022594Y010105D03*
X020494Y010235D03*
X020494Y009605D03*
X020394Y006635D03*
X020394Y006005D03*
D28*
X035629Y005876D03*
X036358Y005620D03*
X035629Y005364D03*
X035629Y006364D03*
X036358Y006620D03*
X035629Y006876D03*
X035629Y007364D03*
X036358Y007620D03*
X035629Y007876D03*
X035629Y008364D03*
X036358Y008620D03*
X035629Y008876D03*
X035629Y009364D03*
X035629Y009876D03*
X036358Y009620D03*
X035629Y010364D03*
X036358Y010620D03*
X035629Y010876D03*
X035629Y011364D03*
X036358Y011620D03*
X035629Y011876D03*
X035629Y012364D03*
X036358Y012620D03*
X035629Y012876D03*
X035629Y013264D03*
X036358Y013520D03*
X035629Y013776D03*
X035629Y014164D03*
X036358Y014420D03*
X035629Y014676D03*
X034029Y015564D03*
X034758Y015820D03*
X034029Y016076D03*
D29*
X032794Y014420D03*
X027194Y014420D03*
D30*
X026406Y014420D03*
X025619Y014420D03*
X024831Y014420D03*
X028856Y014420D03*
X029644Y014420D03*
X030431Y014420D03*
X031219Y014420D03*
X032006Y014420D03*
D31*
X025694Y011920D03*
X025694Y008120D03*
D32*
X022694Y005120D02*
X022694Y004520D01*
X021694Y004520D02*
X021694Y005120D01*
X020694Y005120D02*
X020694Y004520D01*
X020694Y002620D02*
X020694Y002020D01*
X021694Y002020D02*
X021694Y002620D01*
X022694Y002620D02*
X022694Y002020D01*
X022694Y015420D02*
X022694Y016020D01*
X021694Y016020D02*
X021694Y015420D01*
X020694Y015420D02*
X020694Y016020D01*
D33*
X037494Y014620D03*
X037494Y013620D03*
X037494Y012620D03*
X037494Y011620D03*
X037494Y010620D03*
X037494Y009620D03*
X037494Y008620D03*
X037494Y007620D03*
X037494Y006620D03*
X037494Y005620D03*
D34*
X031017Y005720D03*
X031017Y005220D03*
X031017Y004720D03*
X028970Y004720D03*
X028970Y005220D03*
X028970Y005720D03*
X028970Y006220D03*
X031017Y006220D03*
X031017Y003020D03*
X031017Y002520D03*
X031017Y002020D03*
X031017Y001520D03*
X028970Y001520D03*
X028970Y002020D03*
X028970Y002520D03*
X028970Y003020D03*
D35*
X027684Y003170D03*
X026503Y003170D03*
X026303Y005370D03*
X027484Y005370D03*
D36*
X025468Y004553D03*
X024719Y004553D03*
X025094Y003687D03*
D37*
X025094Y003170D01*
X025094Y002635D01*
X025094Y003170D02*
X026503Y003170D01*
X027684Y003170D02*
X028279Y003170D01*
X028279Y003570D01*
X028294Y003555D01*
X028294Y003170D01*
X028444Y003020D01*
X028970Y003020D01*
X028970Y002520D02*
X028344Y002520D01*
X028208Y002385D01*
X027894Y002385D01*
X027429Y002385D01*
X027294Y002520D01*
X026944Y002320D02*
X027494Y001770D01*
X027879Y001770D01*
X027894Y001755D01*
X028179Y001755D01*
X028444Y002020D01*
X028970Y002020D01*
X028970Y001520D02*
X028970Y001094D01*
X028994Y001070D01*
X032029Y001070D01*
X032079Y001120D01*
X032094Y001135D01*
X032094Y001605D01*
X032094Y002235D02*
X032094Y002570D01*
X032044Y002520D01*
X031017Y002520D01*
X030344Y002020D02*
X030194Y002170D01*
X030194Y003270D01*
X029294Y004170D01*
X028894Y004170D01*
X028008Y004170D01*
X028094Y004255D01*
X028094Y004655D01*
X027908Y004655D01*
X027894Y004670D01*
X027094Y004670D01*
X026894Y004870D01*
X026894Y006020D01*
X026944Y006070D01*
X027994Y006070D01*
X028344Y005720D01*
X028970Y005720D01*
X029744Y005720D01*
X030094Y005370D01*
X030094Y005170D01*
X030544Y004720D01*
X031017Y004720D01*
X031744Y005220D02*
X031894Y005070D01*
X031894Y004370D01*
X031794Y004270D01*
X030394Y004270D01*
X029444Y005220D01*
X028970Y005220D01*
X028129Y005220D01*
X028094Y005285D01*
X027908Y005370D01*
X027484Y005370D01*
X026303Y005370D02*
X026303Y004811D01*
X026844Y004270D01*
X026844Y003970D01*
X025468Y004553D02*
X025468Y005346D01*
X024894Y005920D01*
X023794Y004820D01*
X022694Y004820D01*
X021694Y004820D02*
X021694Y005320D01*
X023094Y006720D01*
X023094Y009875D01*
X023468Y009875D02*
X023468Y009331D01*
X023594Y009331D01*
X023594Y008720D01*
X023794Y008520D01*
X024585Y009220D02*
X024686Y009119D01*
X024585Y009220D02*
X024208Y009220D01*
X023579Y009220D02*
X023468Y009331D01*
X022544Y009244D02*
X022544Y008470D01*
X022194Y008120D01*
X021194Y008120D01*
X021044Y007970D01*
X021044Y007196D01*
X021044Y006835D01*
X020929Y006520D01*
X020929Y006635D01*
X020394Y006635D01*
X021294Y006020D02*
X021558Y006285D01*
X021558Y006520D01*
X021544Y006735D01*
X021544Y007196D01*
X022044Y007196D02*
X022070Y007396D01*
X022094Y007420D01*
X022294Y007420D01*
X022520Y007420D01*
X022544Y007196D01*
X020294Y007420D02*
X020294Y008005D01*
X020294Y008635D02*
X020408Y008720D01*
X020594Y008720D01*
X020794Y008520D01*
X021794Y008520D01*
X022044Y008770D01*
X022044Y009244D01*
X022044Y010105D01*
X022594Y010105D01*
X022044Y010105D02*
X022044Y010255D01*
X022008Y010320D01*
X021544Y010255D02*
X021379Y010320D01*
X021494Y010335D01*
X021494Y010720D01*
X021594Y010820D01*
X022494Y010820D01*
X022494Y010735D01*
X022594Y010735D01*
X022494Y010820D02*
X023094Y010820D01*
X023468Y010820D02*
X023468Y012174D01*
X023614Y012320D01*
X025008Y012720D02*
X025594Y012720D01*
X025694Y012620D01*
X025694Y011920D01*
X025744Y011870D01*
X029069Y011870D01*
X029069Y012370D02*
X027844Y012370D01*
X026594Y013620D01*
X025794Y013620D01*
X025619Y013795D01*
X025619Y014420D01*
X026406Y014420D02*
X026406Y014307D01*
X027844Y012870D01*
X029069Y012870D01*
X029069Y013370D02*
X029069Y013545D01*
X028794Y013820D01*
X028394Y013820D01*
X028094Y013520D01*
X028094Y013420D01*
X028394Y013820D02*
X028294Y013920D01*
X028294Y014820D01*
X028494Y015020D01*
X031794Y015020D01*
X032006Y014807D01*
X032006Y014420D01*
X031394Y014245D02*
X031219Y014420D01*
X031394Y014245D02*
X031394Y012320D01*
X031844Y011870D01*
X032719Y011870D01*
X034044Y011870D01*
X035049Y012876D01*
X035629Y012876D01*
X035629Y013264D02*
X035573Y013320D01*
X035494Y013320D01*
X034794Y013120D02*
X034794Y013720D01*
X034849Y013776D01*
X035629Y013776D01*
X035629Y014164D02*
X035629Y014184D01*
X035594Y014220D01*
X035629Y014676D02*
X034849Y014676D01*
X034794Y014620D01*
X034794Y014320D01*
X034394Y013920D01*
X034394Y013220D01*
X034044Y012870D01*
X032719Y012870D01*
X033144Y012870D01*
X033194Y012920D01*
X033144Y012370D02*
X032719Y012370D01*
X034044Y012370D01*
X034794Y013120D01*
X033894Y013470D02*
X033844Y013420D01*
X033894Y013470D02*
X033894Y013805D01*
X033394Y013920D02*
X033394Y014320D01*
X033508Y014435D01*
X033894Y014435D01*
X033908Y014435D01*
X033994Y014520D01*
X033994Y015020D01*
X033038Y015564D02*
X032794Y015320D01*
X032794Y014420D01*
X033394Y013920D02*
X032844Y013370D01*
X032719Y013370D01*
X030794Y013720D02*
X029794Y013720D01*
X029644Y013870D01*
X029644Y014420D01*
X026494Y013120D02*
X026494Y013020D01*
X026494Y013120D02*
X026408Y013205D01*
X024379Y013205D01*
X024094Y014720D02*
X024094Y015620D01*
X024549Y016076D01*
X034029Y016076D01*
X034758Y015820D02*
X034879Y015820D01*
X035079Y016020D01*
X035708Y016020D02*
X036194Y016020D01*
X036194Y015935D01*
X036194Y016020D02*
X036715Y016020D01*
X036741Y015994D01*
X034029Y015564D02*
X033038Y015564D01*
X033144Y012370D02*
X033194Y012320D01*
X034144Y011370D02*
X034649Y011876D01*
X035629Y011876D01*
X034144Y011370D02*
X032719Y011370D01*
X032719Y010870D02*
X034444Y010870D01*
X034849Y010876D01*
X035629Y010876D01*
X034838Y009876D02*
X034344Y010370D01*
X032719Y010370D01*
X032719Y009870D02*
X033944Y009870D01*
X034938Y008876D01*
X035629Y008876D01*
X035629Y009876D02*
X034838Y009876D01*
X033444Y009370D02*
X034938Y007876D01*
X035629Y007876D01*
X034694Y007520D02*
X034694Y007020D01*
X034838Y006876D01*
X035629Y006876D01*
X034738Y005876D02*
X034294Y006320D01*
X034294Y007320D01*
X033194Y008420D01*
X032294Y008420D01*
X031344Y009370D01*
X029069Y009370D01*
X029069Y009870D02*
X028544Y009870D01*
X028294Y009620D01*
X028294Y007970D01*
X029494Y006770D01*
X029744Y006770D01*
X030294Y006220D01*
X030294Y005870D01*
X030444Y005720D01*
X031017Y005720D01*
X031017Y005220D02*
X031744Y005220D01*
X031017Y006220D02*
X031017Y007220D01*
X030808Y007220D01*
X031017Y007220D02*
X031017Y007546D01*
X030894Y007670D01*
X030179Y007220D02*
X030179Y008855D01*
X030194Y008870D01*
X029394Y008820D02*
X029344Y008870D01*
X029069Y008870D01*
X027894Y009820D02*
X027894Y007320D01*
X028970Y006244D01*
X028970Y006220D01*
X026379Y007320D02*
X025894Y007320D01*
X025694Y007520D01*
X025694Y008120D01*
X026694Y009120D01*
X026694Y011220D01*
X026844Y011370D01*
X029069Y011370D01*
X029069Y010870D02*
X028044Y010870D01*
X027894Y010720D01*
X027994Y010820D01*
X028444Y010370D02*
X029069Y010370D01*
X028444Y010370D02*
X027894Y009820D01*
X024094Y009820D02*
X023897Y009820D01*
X023842Y009875D01*
X021544Y010255D02*
X021544Y009244D01*
X021044Y009244D02*
X021044Y009870D01*
X020679Y010235D01*
X020494Y010235D01*
X020494Y010729D01*
X020094Y011129D01*
X020179Y009605D02*
X020494Y009605D01*
X020179Y009605D02*
X019694Y009120D01*
X019694Y007420D01*
X018394Y007420D01*
X017894Y006920D01*
X017894Y005408D01*
X018081Y005408D01*
X019494Y005620D02*
X019894Y006020D01*
X020394Y006020D01*
X020394Y006005D01*
X020394Y006020D02*
X021294Y006020D01*
X019494Y005620D02*
X019494Y002920D01*
X019166Y002593D01*
X017894Y002593D01*
X024294Y002020D02*
X024308Y002005D01*
X025094Y002005D01*
X028894Y001070D02*
X028994Y001070D01*
X031017Y001520D02*
X031017Y002020D01*
X030344Y002020D01*
X032094Y002570D02*
X032094Y002805D01*
X031544Y003020D02*
X031958Y003435D01*
X032094Y003435D01*
X032694Y003435D01*
X032708Y003420D01*
X032708Y003485D01*
X032744Y003520D01*
X032708Y003420D02*
X032708Y001120D01*
X031544Y003020D02*
X031017Y003020D01*
X031017Y003546D01*
X030794Y003770D01*
X030294Y003770D01*
X029344Y004720D01*
X028970Y004720D01*
X028894Y004170D02*
X028908Y004155D01*
X028908Y003570D01*
X024894Y005920D02*
X024894Y006670D01*
X020294Y007420D02*
X019694Y007420D01*
X023842Y010820D02*
X023842Y010868D01*
X024094Y011120D01*
X024094Y011220D01*
X032719Y009370D02*
X033444Y009370D01*
X033344Y008870D02*
X032709Y008870D01*
X033344Y008870D02*
X034694Y007520D01*
X034738Y005876D02*
X035629Y005876D01*
D38*
X035294Y005420D03*
X035294Y006420D03*
X035294Y007420D03*
X032894Y007020D03*
X032894Y006420D03*
X030894Y007670D03*
X029994Y008120D03*
X029394Y008120D03*
X027194Y008220D03*
X023794Y008520D03*
X023694Y007720D03*
X022294Y007420D03*
X020294Y007420D03*
X018394Y008920D03*
X018394Y009620D03*
X018394Y010320D03*
X019594Y010620D03*
X018394Y011020D03*
X018394Y011720D03*
X016194Y011020D03*
X015594Y011020D03*
X015594Y010320D03*
X016194Y010320D03*
X022394Y011720D03*
X023094Y012020D03*
X023594Y012320D03*
X023094Y012620D03*
X022394Y012320D03*
X022394Y013020D03*
X023494Y013320D03*
X023494Y013920D03*
X023494Y014520D03*
X024094Y014720D03*
X024794Y013620D03*
X027194Y012320D03*
X024794Y011920D03*
X024094Y011220D03*
X027194Y010820D03*
X027894Y010720D03*
X029994Y010620D03*
X029994Y009920D03*
X031794Y009920D03*
X031794Y010620D03*
X035294Y010420D03*
X035294Y011420D03*
X035294Y012420D03*
X035294Y013320D03*
X033844Y013420D03*
X033194Y012920D03*
X033194Y012320D03*
X030794Y013720D03*
X028094Y013420D03*
X033994Y015020D03*
X035094Y015320D03*
X035594Y015320D03*
X035294Y014220D03*
X037994Y015420D03*
X037994Y016020D03*
X024094Y009820D03*
X024594Y006620D03*
X025294Y006620D03*
X025294Y005920D03*
X024594Y005920D03*
X024294Y002020D03*
X028894Y001320D03*
X035294Y008420D03*
X035294Y009420D03*
X005894Y011320D03*
X003294Y011320D03*
D39*
X018394Y011020D02*
X018394Y011720D01*
X018394Y012020D01*
X018694Y012320D01*
X020084Y012320D01*
X020094Y012311D01*
X020103Y012320D01*
X021174Y012320D01*
X022394Y012320D01*
X023294Y012320D01*
X023594Y012320D01*
X023614Y012320D01*
X024379Y012320D01*
X024694Y012005D01*
X024694Y011520D01*
X024686Y009119D01*
X024679Y006935D01*
X024944Y006670D01*
X026744Y006670D01*
X026994Y006920D01*
X026994Y007305D01*
X027008Y007320D01*
X026994Y007335D01*
X026994Y008620D01*
X027194Y008820D01*
X027194Y010820D01*
X027194Y012320D02*
X026494Y012320D01*
X026494Y013020D01*
X024831Y013658D02*
X024794Y013620D01*
X024379Y013205D01*
X024379Y012720D01*
X024379Y012320D01*
X024831Y013658D02*
X024831Y014420D01*
X022763Y014120D02*
X022694Y014151D01*
X022694Y015720D01*
X021424Y014120D02*
X020184Y014120D01*
X020094Y014211D01*
X021294Y013920D02*
X021294Y013381D01*
X021324Y013381D01*
X021174Y013230D01*
X020094Y013029D02*
X020094Y012311D01*
X020374Y011410D02*
X020094Y011129D01*
X019894Y010929D01*
X019594Y010620D01*
X020374Y011410D02*
X021174Y011410D01*
X021294Y013920D02*
X021424Y014120D01*
X035294Y014220D02*
X035594Y014220D01*
X036358Y014420D02*
X036394Y014420D01*
X036594Y014620D01*
X037494Y014620D01*
X036741Y015246D02*
X036741Y015273D01*
X036694Y015320D01*
X036594Y013620D02*
X037494Y013620D01*
X036594Y013620D02*
X036494Y013520D01*
X036358Y013520D01*
X035494Y013320D02*
X035294Y013320D01*
X036358Y012620D02*
X037494Y012620D01*
X037494Y011620D02*
X036358Y011620D01*
X035629Y011384D02*
X035594Y011420D01*
X035294Y011420D01*
X035629Y011384D02*
X035629Y011364D01*
X036358Y010620D02*
X037494Y010620D01*
X035629Y010384D02*
X035594Y010420D01*
X035294Y010420D01*
X035629Y010384D02*
X035629Y010364D01*
X036358Y009620D02*
X037494Y009620D01*
X035629Y009384D02*
X035594Y009420D01*
X035294Y009420D01*
X035629Y009384D02*
X035629Y009364D01*
X036358Y008620D02*
X037494Y008620D01*
X035629Y008384D02*
X035594Y008420D01*
X035294Y008420D01*
X035629Y008384D02*
X035629Y008364D01*
X036358Y007620D02*
X037494Y007620D01*
X037494Y006620D02*
X036358Y006620D01*
X035629Y006384D02*
X035594Y006420D01*
X035294Y006420D01*
X035629Y006384D02*
X035629Y006364D01*
X036358Y005620D02*
X037494Y005620D01*
X035629Y005384D02*
X035629Y005364D01*
X035629Y005384D02*
X035594Y005420D01*
X035294Y005420D01*
X035629Y007364D02*
X035629Y007384D01*
X035594Y007420D01*
X035294Y007420D01*
X024944Y006670D02*
X024894Y006670D01*
X022694Y004820D02*
X022694Y002320D01*
X021194Y001020D02*
X020694Y001520D01*
X020694Y002320D01*
X020694Y004820D01*
X028970Y001520D02*
X028970Y001196D01*
X028894Y001320D01*
X028894Y001070D02*
X028844Y001020D01*
X021194Y001020D01*
X035294Y012420D02*
X035594Y012420D01*
X035629Y012384D01*
X035629Y012364D01*
D40*
X020724Y000740D02*
X014914Y000740D01*
X014914Y008723D01*
X014834Y008915D01*
X014688Y009061D01*
X013288Y010461D01*
X013097Y010540D01*
X005306Y010540D01*
X005399Y010633D01*
X005456Y010769D01*
X005456Y011861D01*
X005399Y011997D01*
X005295Y012101D01*
X005159Y012158D01*
X003831Y012158D01*
X003695Y012101D01*
X003591Y011997D01*
X003535Y011861D01*
X003535Y010769D01*
X003591Y010633D01*
X003684Y010540D01*
X001814Y010540D01*
X001814Y010623D01*
X001977Y010623D01*
X001977Y011199D01*
X002210Y011199D01*
X002210Y011431D01*
X002904Y011431D01*
X002904Y011817D01*
X002889Y011873D01*
X002860Y011923D01*
X002819Y011964D01*
X002769Y011993D01*
X002713Y012008D01*
X002210Y012008D01*
X002210Y011432D01*
X001977Y011432D01*
X001977Y012008D01*
X001814Y012008D01*
X001814Y012724D01*
X001926Y012678D01*
X002261Y012678D01*
X002571Y012806D01*
X002808Y013043D01*
X002936Y013352D01*
X002936Y013688D01*
X002808Y013997D01*
X002571Y014234D01*
X002261Y014362D01*
X001926Y014362D01*
X001814Y014316D01*
X001814Y014882D01*
X005218Y014882D01*
X005354Y014939D01*
X005458Y015043D01*
X005515Y015179D01*
X005515Y015320D01*
X006658Y015320D01*
X006276Y014913D01*
X005990Y014392D01*
X005842Y013817D01*
X005842Y013223D01*
X005990Y012648D01*
X005990Y012648D01*
X006276Y012127D01*
X006683Y011694D01*
X007184Y011376D01*
X007184Y011376D01*
X007749Y011192D01*
X007749Y011192D01*
X008342Y011155D01*
X008342Y011155D01*
X008926Y011266D01*
X009463Y011519D01*
X009463Y011519D01*
X009921Y011898D01*
X010270Y012378D01*
X010489Y012931D01*
X010564Y013520D01*
X010489Y014109D01*
X010270Y014662D01*
X009921Y015142D01*
X009706Y015320D01*
X011504Y015320D01*
X011697Y015127D01*
X011954Y015020D01*
X020146Y015020D01*
X020314Y014852D01*
X020423Y014807D01*
X019695Y014807D01*
X019559Y014751D01*
X019455Y014647D01*
X019399Y014511D01*
X019399Y013911D01*
X019455Y013775D01*
X019559Y013671D01*
X019695Y013614D01*
X020020Y013614D01*
X020079Y013590D01*
X020383Y013590D01*
X020364Y013544D01*
X020364Y013476D01*
X020094Y013476D01*
X020094Y013029D01*
X020094Y012311D01*
X020093Y012311D01*
X020093Y012757D01*
X020093Y013029D01*
X019549Y013029D01*
X019549Y012774D01*
X019564Y012718D01*
X019591Y012670D01*
X019564Y012622D01*
X010367Y012622D01*
X010272Y012384D02*
X019549Y012384D01*
X019549Y012311D02*
X020093Y012311D01*
X020093Y012311D01*
X019549Y012311D01*
X019549Y012566D01*
X019564Y012622D01*
X020093Y012622D02*
X020094Y012622D01*
X020093Y012384D02*
X020094Y012384D01*
X019549Y012311D02*
X019549Y012055D01*
X019564Y011999D01*
X019593Y011949D01*
X019634Y011908D01*
X019684Y011879D01*
X019740Y011864D01*
X020086Y011864D01*
X020074Y011859D01*
X019940Y011726D01*
X019695Y011726D01*
X019559Y011669D01*
X019455Y011565D01*
X019399Y011429D01*
X019399Y011188D01*
X019322Y011188D01*
X019186Y011132D01*
X019082Y011028D01*
X019025Y010892D01*
X019025Y010348D01*
X019082Y010212D01*
X019186Y010108D01*
X019322Y010052D01*
X019865Y010052D01*
X019936Y010081D01*
X019936Y009984D01*
X019993Y009848D01*
X020086Y009755D01*
X020086Y009605D01*
X020086Y009399D01*
X020101Y009343D01*
X020130Y009293D01*
X020171Y009252D01*
X020222Y009223D01*
X020278Y009208D01*
X020493Y009208D01*
X020493Y009605D01*
X020086Y009605D01*
X020493Y009605D01*
X020493Y009605D01*
X020494Y009605D01*
X020494Y009208D01*
X020555Y009208D01*
X020555Y009182D01*
X020023Y009182D01*
X019887Y009126D01*
X019783Y009022D01*
X019727Y008886D01*
X019727Y008384D01*
X019783Y008248D01*
X019877Y008155D01*
X019877Y008005D01*
X019877Y007799D01*
X019892Y007743D01*
X019921Y007693D01*
X019962Y007652D01*
X020012Y007623D01*
X020068Y007608D01*
X020293Y007608D01*
X020293Y008005D01*
X019877Y008005D01*
X020293Y008005D01*
X020293Y008005D01*
X020294Y008005D01*
X020294Y007608D01*
X020519Y007608D01*
X020555Y007618D01*
X020555Y007182D01*
X020133Y007182D01*
X019997Y007126D01*
X019893Y007022D01*
X019836Y006886D01*
X019836Y006470D01*
X019804Y006470D01*
X019639Y006401D01*
X019512Y006275D01*
X019112Y005875D01*
X019044Y005710D01*
X019044Y004605D01*
X018925Y004811D01*
X018685Y005051D01*
X018468Y005176D01*
X018468Y005356D01*
X017946Y005356D01*
X017946Y005460D01*
X018468Y005460D01*
X018468Y005781D01*
X018453Y005837D01*
X018424Y005887D01*
X018383Y005928D01*
X018333Y005957D01*
X018277Y005972D01*
X017946Y005972D01*
X017946Y005460D01*
X017841Y005460D01*
X017841Y005356D01*
X017319Y005356D01*
X017319Y005176D01*
X017102Y005051D01*
X016862Y004811D01*
X016693Y004517D01*
X016605Y004190D01*
X016605Y003850D01*
X016693Y003523D01*
X016862Y003229D01*
X017102Y002989D01*
X017169Y002950D01*
X017169Y002175D01*
X017226Y002039D01*
X017330Y001935D01*
X017466Y001878D01*
X018321Y001878D01*
X018457Y001935D01*
X018562Y002039D01*
X018605Y002143D01*
X019256Y002143D01*
X019421Y002211D01*
X019748Y002539D01*
X019875Y002665D01*
X019944Y002830D01*
X019944Y005434D01*
X020016Y005506D01*
X020112Y005467D01*
X020024Y005253D01*
X020024Y004387D01*
X020126Y004140D01*
X020164Y004102D01*
X020164Y003038D01*
X020126Y003000D01*
X020024Y002753D01*
X020024Y001887D01*
X020126Y001640D01*
X020164Y001602D01*
X020164Y001415D01*
X020244Y001220D01*
X020724Y000740D01*
X020528Y000936D02*
X014914Y000936D01*
X014914Y001174D02*
X020290Y001174D01*
X020164Y001413D02*
X014914Y001413D01*
X014914Y001651D02*
X020121Y001651D01*
X020024Y001890D02*
X018348Y001890D01*
X018598Y002128D02*
X020024Y002128D01*
X020024Y002367D02*
X019576Y002367D01*
X019815Y002605D02*
X020024Y002605D01*
X020061Y002844D02*
X019944Y002844D01*
X019944Y003082D02*
X020164Y003082D01*
X020164Y003321D02*
X019944Y003321D01*
X019944Y003559D02*
X020164Y003559D01*
X020164Y003798D02*
X019944Y003798D01*
X019944Y004036D02*
X020164Y004036D01*
X020070Y004275D02*
X019944Y004275D01*
X019944Y004513D02*
X020024Y004513D01*
X020024Y004752D02*
X019944Y004752D01*
X019944Y004990D02*
X020024Y004990D01*
X020024Y005229D02*
X019944Y005229D01*
X019977Y005467D02*
X020111Y005467D01*
X019044Y005467D02*
X018468Y005467D01*
X018468Y005229D02*
X019044Y005229D01*
X019044Y004990D02*
X018746Y004990D01*
X018959Y004752D02*
X019044Y004752D01*
X017946Y005467D02*
X017841Y005467D01*
X017841Y005460D02*
X017841Y005972D01*
X017510Y005972D01*
X017454Y005957D01*
X017404Y005928D01*
X017363Y005887D01*
X017334Y005837D01*
X017319Y005781D01*
X017319Y005460D01*
X017841Y005460D01*
X017841Y005706D02*
X017946Y005706D01*
X018468Y005706D02*
X019044Y005706D01*
X019181Y005944D02*
X018356Y005944D01*
X017946Y005944D02*
X017841Y005944D01*
X017431Y005944D02*
X014914Y005944D01*
X014914Y006183D02*
X019420Y006183D01*
X019686Y006421D02*
X014914Y006421D01*
X014914Y006660D02*
X019836Y006660D01*
X019842Y006898D02*
X014914Y006898D01*
X014914Y007137D02*
X020023Y007137D01*
X020555Y007375D02*
X014914Y007375D01*
X014914Y007614D02*
X020047Y007614D01*
X020293Y007614D02*
X020294Y007614D01*
X020540Y007614D02*
X020555Y007614D01*
X020293Y007852D02*
X020294Y007852D01*
X019877Y007852D02*
X014914Y007852D01*
X014914Y008091D02*
X019877Y008091D01*
X019750Y008329D02*
X014914Y008329D01*
X014914Y008568D02*
X019727Y008568D01*
X019727Y008806D02*
X014879Y008806D01*
X014704Y009045D02*
X019806Y009045D01*
X020140Y009283D02*
X014466Y009283D01*
X014227Y009522D02*
X020086Y009522D01*
X020493Y009522D02*
X020494Y009522D01*
X020493Y009283D02*
X020494Y009283D01*
X020081Y009760D02*
X013989Y009760D01*
X013750Y009999D02*
X019936Y009999D01*
X019071Y010237D02*
X013512Y010237D01*
X013253Y010476D02*
X019025Y010476D01*
X019025Y010714D02*
X005433Y010714D01*
X005456Y010953D02*
X019051Y010953D01*
X019399Y011191D02*
X008533Y011191D01*
X008926Y011266D02*
X008926Y011266D01*
X009273Y011430D02*
X019399Y011430D01*
X019558Y011668D02*
X009644Y011668D01*
X009921Y011898D02*
X009921Y011898D01*
X009921Y011898D01*
X009928Y011907D02*
X019636Y011907D01*
X019549Y012145D02*
X010101Y012145D01*
X010270Y012378D02*
X010270Y012378D01*
X010461Y012861D02*
X019549Y012861D01*
X019549Y013029D02*
X020093Y013029D01*
X020093Y013029D01*
X020094Y013029D01*
X020093Y013029D01*
X020093Y013476D01*
X019740Y013476D01*
X019684Y013461D01*
X019634Y013432D01*
X019593Y013391D01*
X019564Y013341D01*
X019549Y013285D01*
X019549Y013029D01*
X019549Y013099D02*
X010510Y013099D01*
X010489Y012931D02*
X010489Y012931D01*
X010540Y013338D02*
X019563Y013338D01*
X020093Y013338D02*
X020094Y013338D01*
X020093Y013099D02*
X020094Y013099D01*
X020093Y012861D02*
X020094Y012861D01*
X021174Y012320D02*
X021834Y012320D01*
X021834Y012589D01*
X021819Y012645D01*
X021805Y012669D01*
X021823Y012676D01*
X021927Y012780D01*
X021984Y012916D01*
X021984Y013526D01*
X022013Y013556D01*
X022070Y013692D01*
X022070Y014548D01*
X022013Y014684D01*
X021912Y014785D01*
X022073Y014852D01*
X022164Y014942D01*
X022164Y014660D01*
X022117Y014548D01*
X022117Y013692D01*
X022174Y013556D01*
X022278Y013452D01*
X022414Y013396D01*
X023112Y013396D01*
X023248Y013452D01*
X023352Y013556D01*
X023408Y013692D01*
X023408Y014548D01*
X023352Y014684D01*
X023248Y014788D01*
X023224Y014798D01*
X023224Y015002D01*
X023262Y015040D01*
X023364Y015287D01*
X023364Y016153D01*
X023262Y016400D01*
X023091Y016570D01*
X034787Y016570D01*
X034692Y016531D01*
X034588Y016426D01*
X034531Y016290D01*
X034503Y016278D01*
X034451Y016404D01*
X034347Y016508D01*
X034211Y016564D01*
X033847Y016564D01*
X033755Y016526D01*
X024460Y016526D01*
X024295Y016457D01*
X024168Y016331D01*
X023712Y015875D01*
X023644Y015710D01*
X023644Y015189D01*
X023582Y015128D01*
X023525Y014992D01*
X023525Y014448D01*
X023582Y014312D01*
X023686Y014208D01*
X023822Y014152D01*
X024365Y014152D01*
X024427Y014178D01*
X024429Y014174D01*
X024473Y014114D01*
X024525Y014062D01*
X024585Y014018D01*
X024651Y013984D01*
X024721Y013962D01*
X024794Y013950D01*
X024831Y013950D01*
X024831Y014420D01*
X024831Y014420D01*
X024831Y014890D01*
X024794Y014890D01*
X024721Y014878D01*
X024662Y014859D01*
X024662Y014992D01*
X024605Y015128D01*
X024544Y015189D01*
X024544Y015434D01*
X024736Y015626D01*
X033701Y015626D01*
X033701Y015580D01*
X033586Y015532D01*
X033482Y015428D01*
X033425Y015292D01*
X033425Y014885D01*
X033419Y014885D01*
X033254Y014816D01*
X033228Y014791D01*
X033220Y014805D01*
X033179Y014846D01*
X033128Y014875D01*
X033072Y014890D01*
X032794Y014890D01*
X032794Y014420D01*
X032793Y014420D01*
X032793Y014890D01*
X032515Y014890D01*
X032459Y014875D01*
X032456Y014874D01*
X032456Y014897D01*
X032388Y015062D01*
X032175Y015275D01*
X032048Y015401D01*
X031883Y015470D01*
X028404Y015470D01*
X028239Y015401D01*
X028039Y015201D01*
X027912Y015075D01*
X027844Y014910D01*
X027844Y013988D01*
X027822Y013988D01*
X027758Y013962D01*
X027814Y014096D01*
X027814Y014744D01*
X027757Y014880D01*
X027653Y014984D01*
X027517Y015040D01*
X026870Y015040D01*
X026734Y014984D01*
X026714Y014964D01*
X026529Y015040D01*
X026283Y015040D01*
X026055Y014946D01*
X026012Y014903D01*
X025970Y014946D01*
X025742Y015040D01*
X025495Y015040D01*
X025267Y014946D01*
X025116Y014794D01*
X025078Y014822D01*
X025012Y014856D01*
X024941Y014878D01*
X024868Y014890D01*
X024831Y014890D01*
X024831Y014420D01*
X024831Y014420D01*
X024831Y013950D01*
X024868Y013950D01*
X024941Y013962D01*
X025012Y013984D01*
X025078Y014018D01*
X025116Y014046D01*
X025169Y013993D01*
X025169Y013705D01*
X025237Y013540D01*
X025412Y013365D01*
X025487Y013290D01*
X025270Y013290D01*
X025239Y013277D01*
X024758Y013277D01*
X024622Y013221D01*
X024528Y013127D01*
X024379Y013127D01*
X024379Y012720D01*
X024379Y012720D01*
X024379Y012313D01*
X024528Y012313D01*
X024622Y012219D01*
X024758Y012163D01*
X024974Y012163D01*
X024974Y010846D01*
X025030Y010710D01*
X025134Y010606D01*
X025270Y010550D01*
X026117Y010550D01*
X026244Y010602D01*
X026244Y009438D01*
X026117Y009490D01*
X025270Y009490D01*
X025134Y009434D01*
X025030Y009330D01*
X024974Y009194D01*
X024974Y007046D01*
X025030Y006910D01*
X025134Y006806D01*
X025270Y006750D01*
X026117Y006750D01*
X026148Y006763D01*
X026629Y006763D01*
X026765Y006819D01*
X026859Y006913D01*
X027008Y006913D01*
X027008Y007320D01*
X027008Y007727D01*
X026859Y007727D01*
X026765Y007821D01*
X026629Y007877D01*
X026414Y007877D01*
X026414Y008204D01*
X027075Y008865D01*
X027144Y009030D01*
X027144Y010920D01*
X027325Y010920D01*
X027325Y010448D01*
X027382Y010312D01*
X027486Y010208D01*
X027599Y010161D01*
X027512Y010075D01*
X027444Y009910D01*
X027444Y007230D01*
X027512Y007065D01*
X027639Y006939D01*
X028057Y006520D01*
X026854Y006520D01*
X026689Y006451D01*
X026512Y006275D01*
X026444Y006110D01*
X026444Y006065D01*
X026003Y006065D01*
X025867Y006008D01*
X025763Y005904D01*
X025707Y005768D01*
X025707Y005045D01*
X025693Y005049D01*
X025468Y005049D01*
X025468Y004553D01*
X025468Y004553D01*
X025884Y004553D01*
X025884Y004249D01*
X025869Y004193D01*
X025840Y004142D01*
X025799Y004101D01*
X025749Y004072D01*
X025693Y004057D01*
X025652Y004057D01*
X025660Y004036D01*
X026394Y004036D01*
X026394Y004084D02*
X026394Y003880D01*
X026400Y003865D01*
X026203Y003865D01*
X026067Y003808D01*
X025963Y003704D01*
X025928Y003620D01*
X025660Y003620D01*
X025660Y004036D01*
X025884Y004275D02*
X026203Y004275D01*
X026394Y004084D02*
X025921Y004556D01*
X025884Y004645D01*
X025884Y004553D01*
X025468Y004553D01*
X025468Y004553D01*
X025468Y005049D01*
X025242Y005049D01*
X025224Y005044D01*
X025126Y005142D01*
X024990Y005199D01*
X024449Y005199D01*
X024313Y005142D01*
X024209Y005038D01*
X024153Y004902D01*
X024153Y004204D01*
X024209Y004068D01*
X024313Y003964D01*
X024449Y003907D01*
X024527Y003907D01*
X024527Y003338D01*
X024583Y003202D01*
X024644Y003141D01*
X024644Y003082D01*
X024583Y003022D01*
X024527Y002886D01*
X024527Y002588D01*
X024022Y002588D01*
X023886Y002532D01*
X023782Y002428D01*
X023725Y002292D01*
X023725Y001748D01*
X023782Y001612D01*
X023844Y001550D01*
X022916Y001550D01*
X022966Y001575D01*
X023032Y001623D01*
X023090Y001681D01*
X023138Y001747D01*
X023175Y001820D01*
X023201Y001898D01*
X023214Y001979D01*
X023214Y002320D01*
X023214Y002661D01*
X023201Y002742D01*
X023175Y002820D01*
X023138Y002893D01*
X023090Y002959D01*
X023032Y003017D01*
X022966Y003065D01*
X022893Y003102D01*
X022815Y003127D01*
X022734Y003140D01*
X022694Y003140D01*
X022694Y002320D01*
X023214Y002320D01*
X022694Y002320D01*
X022694Y002320D01*
X022693Y002320D01*
X022693Y003140D01*
X022653Y003140D01*
X022572Y003127D01*
X022494Y003102D01*
X022421Y003065D01*
X022355Y003017D01*
X022297Y002959D01*
X022285Y002943D01*
X022262Y003000D01*
X022073Y003188D01*
X021827Y003290D01*
X021560Y003290D01*
X021314Y003188D01*
X021224Y003098D01*
X021224Y004042D01*
X021314Y003952D01*
X021560Y003850D01*
X021827Y003850D01*
X022073Y003952D01*
X022262Y004140D01*
X022285Y004197D01*
X022297Y004181D01*
X022355Y004123D01*
X022421Y004075D01*
X022494Y004038D01*
X022572Y004013D01*
X022653Y004000D01*
X022693Y004000D01*
X022693Y004820D01*
X022693Y005640D01*
X022653Y005640D01*
X022649Y005639D01*
X023348Y006339D01*
X023475Y006465D01*
X023544Y006630D01*
X023544Y007952D01*
X024065Y007952D01*
X024201Y008008D01*
X024305Y008112D01*
X024362Y008248D01*
X024362Y008792D01*
X024353Y008813D01*
X024415Y008813D01*
X024471Y008828D01*
X024521Y008857D01*
X024562Y008898D01*
X024591Y008948D01*
X024606Y009004D01*
X024606Y009220D01*
X024606Y009413D01*
X024662Y009548D01*
X024662Y010092D01*
X024605Y010228D01*
X024501Y010332D01*
X024365Y010388D01*
X024179Y010388D01*
X024244Y010453D01*
X024300Y010589D01*
X024300Y010652D01*
X024365Y010652D01*
X024501Y010708D01*
X024605Y010812D01*
X024662Y010948D01*
X024662Y011492D01*
X024605Y011628D01*
X024501Y011732D01*
X024365Y011788D01*
X024267Y011788D01*
X024267Y012223D01*
X023710Y012223D01*
X023710Y011742D01*
X023686Y011732D01*
X023582Y011628D01*
X023525Y011492D01*
X023525Y011273D01*
X023468Y011215D01*
X023392Y011291D01*
X023256Y011347D01*
X022931Y011347D01*
X022795Y011291D01*
X022786Y011282D01*
X022333Y011282D01*
X022304Y011270D01*
X021984Y011270D01*
X021984Y011724D01*
X021927Y011860D01*
X021823Y011964D01*
X021805Y011971D01*
X021819Y011995D01*
X021834Y012051D01*
X021834Y012320D01*
X021174Y012320D01*
X021174Y012320D01*
X021834Y012384D02*
X023517Y012384D01*
X023517Y012417D02*
X023517Y012223D01*
X023710Y012223D01*
X023710Y012417D01*
X023517Y012417D01*
X023517Y013249D01*
X023152Y013249D01*
X023096Y013234D01*
X023045Y013205D01*
X023004Y013164D01*
X022976Y013114D01*
X022961Y013058D01*
X022961Y012417D01*
X023517Y012417D01*
X023710Y012417D02*
X023710Y013249D01*
X024076Y013249D01*
X024132Y013234D01*
X024182Y013205D01*
X024223Y013164D01*
X024244Y013127D01*
X024379Y013127D01*
X024379Y012720D01*
X024379Y012720D01*
X024379Y012313D01*
X024172Y012313D01*
X024116Y012328D01*
X024066Y012357D01*
X024025Y012398D01*
X024015Y012417D01*
X023710Y012417D01*
X023710Y012384D02*
X024040Y012384D01*
X024267Y012145D02*
X024974Y012145D01*
X024379Y012384D02*
X024379Y012384D01*
X024379Y012622D02*
X024379Y012622D01*
X024379Y012861D02*
X024379Y012861D01*
X024379Y013099D02*
X024379Y013099D01*
X023710Y013099D02*
X023517Y013099D01*
X023517Y012861D02*
X023710Y012861D01*
X023710Y012622D02*
X023517Y012622D01*
X022961Y012622D02*
X021825Y012622D01*
X021960Y012861D02*
X022961Y012861D01*
X022972Y013099D02*
X021984Y013099D01*
X021984Y013338D02*
X025440Y013338D01*
X025222Y013576D02*
X023360Y013576D01*
X023408Y013815D02*
X025169Y013815D01*
X024831Y014053D02*
X024831Y014053D01*
X024831Y014292D02*
X024831Y014292D01*
X024831Y014530D02*
X024831Y014530D01*
X024831Y014769D02*
X024831Y014769D01*
X024655Y015007D02*
X025416Y015007D01*
X025822Y015007D02*
X026203Y015007D01*
X026609Y015007D02*
X026790Y015007D01*
X027597Y015007D02*
X027884Y015007D01*
X027844Y014769D02*
X027803Y014769D01*
X027814Y014530D02*
X027844Y014530D01*
X027844Y014292D02*
X027814Y014292D01*
X027796Y014053D02*
X027844Y014053D01*
X029874Y013270D02*
X030324Y013270D01*
X030386Y013208D01*
X030522Y013152D01*
X030944Y013152D01*
X030944Y012230D01*
X031012Y012065D01*
X031139Y011939D01*
X031589Y011489D01*
X031754Y011420D01*
X031914Y011420D01*
X031914Y011176D01*
X031937Y011120D01*
X031914Y011064D01*
X031914Y010676D01*
X031937Y010620D01*
X031914Y010564D01*
X031914Y010176D01*
X031937Y010120D01*
X031914Y010064D01*
X031914Y009676D01*
X031937Y009620D01*
X031914Y009564D01*
X031914Y009436D01*
X031598Y009751D01*
X031433Y009820D01*
X031254Y009820D01*
X029874Y009820D01*
X029874Y010064D01*
X029850Y010120D01*
X029874Y010176D01*
X029874Y010564D01*
X029850Y010620D01*
X029874Y010676D01*
X029874Y011064D01*
X029850Y011120D01*
X029874Y011176D01*
X029874Y011564D01*
X029850Y011620D01*
X029874Y011676D01*
X029874Y012064D01*
X029850Y012120D01*
X029874Y012176D01*
X029874Y012564D01*
X029850Y012620D01*
X029874Y012676D01*
X029874Y013064D01*
X029850Y013120D01*
X029874Y013176D01*
X029874Y013270D01*
X029859Y013099D02*
X030944Y013099D01*
X030944Y012861D02*
X029874Y012861D01*
X029851Y012622D02*
X030944Y012622D01*
X030944Y012384D02*
X029874Y012384D01*
X029861Y012145D02*
X030979Y012145D01*
X031171Y011907D02*
X029874Y011907D01*
X029870Y011668D02*
X031409Y011668D01*
X031731Y011430D02*
X029874Y011430D01*
X029874Y011191D02*
X031914Y011191D01*
X031914Y010953D02*
X029874Y010953D01*
X029874Y010714D02*
X031914Y010714D01*
X031914Y010476D02*
X029874Y010476D01*
X029874Y010237D02*
X031914Y010237D01*
X031914Y009999D02*
X029874Y009999D01*
X031578Y009760D02*
X031914Y009760D01*
X031914Y009522D02*
X031828Y009522D01*
X031244Y008870D02*
X032094Y008020D01*
X032994Y008020D01*
X033894Y007120D01*
X033894Y006120D01*
X032744Y004970D01*
X032744Y003520D01*
X032510Y003559D02*
X033530Y003559D01*
X033590Y003792D02*
X033442Y003217D01*
X033442Y002623D01*
X033590Y002048D01*
X033876Y001527D01*
X034283Y001094D01*
X034784Y000776D01*
X034784Y000776D01*
X034894Y000740D01*
X032991Y000740D01*
X033021Y000757D01*
X033062Y000798D01*
X033091Y000848D01*
X033106Y000904D01*
X033106Y001120D01*
X033106Y001336D01*
X033091Y001392D01*
X033062Y001442D01*
X033021Y001483D01*
X032971Y001512D01*
X032915Y001527D01*
X032708Y001527D01*
X032660Y001527D01*
X032660Y001856D01*
X032634Y001920D01*
X032660Y001984D01*
X032660Y002486D01*
X032646Y002520D01*
X032660Y002554D01*
X032660Y003056D01*
X032604Y003192D01*
X032510Y003285D01*
X032510Y003435D01*
X032510Y003641D01*
X032495Y003697D01*
X032466Y003747D01*
X032425Y003788D01*
X032375Y003817D01*
X032319Y003832D01*
X032094Y003832D01*
X032094Y003435D01*
X032510Y003435D01*
X032094Y003435D01*
X032094Y003435D01*
X032093Y003435D01*
X032093Y003435D01*
X031677Y003435D01*
X031677Y003641D01*
X031692Y003697D01*
X031721Y003747D01*
X031762Y003788D01*
X031812Y003817D01*
X031822Y003820D01*
X030304Y003820D01*
X030263Y003837D01*
X030575Y003525D01*
X030644Y003360D01*
X030644Y003358D01*
X031017Y003358D01*
X031017Y003020D01*
X031017Y003020D01*
X031017Y003358D01*
X031479Y003358D01*
X031535Y003343D01*
X031585Y003314D01*
X031626Y003273D01*
X031640Y003249D01*
X031677Y003285D01*
X031677Y003435D01*
X032093Y003435D01*
X032093Y003832D01*
X031912Y003832D01*
X032048Y003889D01*
X032148Y003989D01*
X032275Y004115D01*
X032344Y004280D01*
X032344Y005160D01*
X032275Y005325D01*
X032125Y005475D01*
X031998Y005601D01*
X031833Y005670D01*
X031820Y005670D01*
X031820Y005912D01*
X031796Y005970D01*
X031820Y006028D01*
X031820Y006412D01*
X031764Y006548D01*
X031660Y006652D01*
X031524Y006708D01*
X031467Y006708D01*
X031467Y007636D01*
X031462Y007649D01*
X031462Y007942D01*
X031405Y008078D01*
X031301Y008182D01*
X031165Y008238D01*
X030622Y008238D01*
X030486Y008182D01*
X030382Y008078D01*
X030325Y007942D01*
X030325Y007627D01*
X030179Y007627D01*
X030179Y007220D01*
X030179Y007220D01*
X030179Y007627D01*
X029972Y007627D01*
X029916Y007612D01*
X029866Y007583D01*
X029825Y007542D01*
X029796Y007492D01*
X029781Y007436D01*
X029781Y007220D01*
X030179Y007220D01*
X029833Y007220D01*
X029680Y007220D01*
X028744Y008156D01*
X028744Y008530D01*
X029068Y008530D01*
X029068Y008870D01*
X029069Y008870D01*
X029724Y008870D01*
X029724Y008920D01*
X031157Y008920D01*
X031912Y008165D01*
X032039Y008039D01*
X032204Y007970D01*
X033007Y007970D01*
X033844Y007134D01*
X033844Y006230D01*
X033912Y006065D01*
X034356Y005621D01*
X034483Y005494D01*
X034648Y005426D01*
X035301Y005426D01*
X035301Y005364D01*
X035301Y005232D01*
X034784Y005064D01*
X034283Y004746D01*
X033876Y004313D01*
X033590Y003792D01*
X033593Y003798D02*
X032409Y003798D01*
X032094Y003798D02*
X032093Y003798D01*
X032093Y003559D02*
X032094Y003559D01*
X031778Y003798D02*
X030302Y003798D01*
X030541Y003559D02*
X031677Y003559D01*
X031677Y003321D02*
X031574Y003321D01*
X031017Y003321D02*
X031017Y003321D01*
X031017Y003082D02*
X031017Y003082D01*
X032510Y003321D02*
X033469Y003321D01*
X033442Y003082D02*
X032650Y003082D01*
X032660Y002844D02*
X033442Y002844D01*
X033447Y002605D02*
X032660Y002605D01*
X032660Y002367D02*
X033508Y002367D01*
X033569Y002128D02*
X032660Y002128D01*
X032646Y001890D02*
X033677Y001890D01*
X033808Y001651D02*
X032660Y001651D01*
X032708Y001527D02*
X032708Y001120D01*
X032708Y001120D01*
X032708Y001527D01*
X032708Y001413D02*
X032708Y001413D01*
X033079Y001413D02*
X033984Y001413D01*
X033876Y001527D02*
X033876Y001527D01*
X034208Y001174D02*
X033106Y001174D01*
X033106Y001120D02*
X032708Y001120D01*
X032708Y001120D01*
X033106Y001120D01*
X033106Y000936D02*
X034532Y000936D01*
X034283Y001094D02*
X034283Y001094D01*
X032708Y001174D02*
X032708Y001174D01*
X026056Y003798D02*
X025660Y003798D01*
X024527Y003798D02*
X021224Y003798D01*
X021224Y003559D02*
X024527Y003559D01*
X024534Y003321D02*
X021224Y003321D01*
X022179Y003082D02*
X022455Y003082D01*
X022693Y003082D02*
X022694Y003082D01*
X022932Y003082D02*
X024643Y003082D01*
X024527Y002844D02*
X023163Y002844D01*
X023214Y002605D02*
X024527Y002605D01*
X023756Y002367D02*
X023214Y002367D01*
X023214Y002128D02*
X023725Y002128D01*
X023725Y001890D02*
X023198Y001890D01*
X023060Y001651D02*
X023766Y001651D01*
X022693Y002367D02*
X022694Y002367D01*
X022693Y002605D02*
X022694Y002605D01*
X022693Y002844D02*
X022694Y002844D01*
X022694Y004000D02*
X022734Y004000D01*
X022815Y004013D01*
X022893Y004038D01*
X022966Y004075D01*
X023032Y004123D01*
X023090Y004181D01*
X023138Y004247D01*
X023175Y004320D01*
X023201Y004398D01*
X023214Y004479D01*
X023214Y004820D01*
X023214Y005161D01*
X023201Y005242D01*
X023175Y005320D01*
X023138Y005393D01*
X023090Y005459D01*
X023032Y005517D01*
X022966Y005565D01*
X022893Y005602D01*
X022815Y005627D01*
X022734Y005640D01*
X022694Y005640D01*
X022694Y004820D01*
X023214Y004820D01*
X022694Y004820D01*
X022694Y004820D01*
X022693Y004820D01*
X022694Y004820D01*
X022694Y004000D01*
X022693Y004036D02*
X022694Y004036D01*
X022887Y004036D02*
X024241Y004036D01*
X024153Y004275D02*
X023152Y004275D01*
X022694Y004275D02*
X022693Y004275D01*
X022500Y004036D02*
X022157Y004036D01*
X021230Y004036D02*
X021224Y004036D01*
X022693Y004513D02*
X022694Y004513D01*
X022693Y004752D02*
X022694Y004752D01*
X022693Y004990D02*
X022694Y004990D01*
X023214Y004990D02*
X024189Y004990D01*
X024153Y004752D02*
X023214Y004752D01*
X023214Y004513D02*
X024153Y004513D01*
X025468Y004752D02*
X025468Y004752D01*
X025468Y004990D02*
X025468Y004990D01*
X025707Y005229D02*
X023203Y005229D01*
X023082Y005467D02*
X025707Y005467D01*
X025707Y005706D02*
X022715Y005706D01*
X022694Y005467D02*
X022693Y005467D01*
X022693Y005229D02*
X022694Y005229D01*
X022954Y005944D02*
X025803Y005944D01*
X026474Y006183D02*
X023192Y006183D01*
X023431Y006421D02*
X026658Y006421D01*
X026844Y006898D02*
X027679Y006898D01*
X027391Y007048D02*
X027406Y007104D01*
X027406Y007320D01*
X027406Y007536D01*
X027391Y007592D01*
X027362Y007642D01*
X027321Y007683D01*
X027271Y007712D01*
X027215Y007727D01*
X027008Y007727D01*
X027008Y007320D01*
X027008Y007320D01*
X027008Y007320D01*
X027008Y006913D01*
X027215Y006913D01*
X027271Y006928D01*
X027321Y006957D01*
X027362Y006998D01*
X027391Y007048D01*
X027406Y007137D02*
X027482Y007137D01*
X027406Y007320D02*
X027008Y007320D01*
X027406Y007320D01*
X027406Y007375D02*
X027444Y007375D01*
X027444Y007614D02*
X027378Y007614D01*
X027008Y007614D02*
X027008Y007614D01*
X027008Y007375D02*
X027008Y007375D01*
X027008Y007320D02*
X027008Y007320D01*
X027008Y007137D02*
X027008Y007137D01*
X027918Y006660D02*
X023544Y006660D01*
X023544Y006898D02*
X025042Y006898D01*
X024974Y007137D02*
X023544Y007137D01*
X023544Y007375D02*
X024974Y007375D01*
X024974Y007614D02*
X023544Y007614D01*
X023544Y007852D02*
X024974Y007852D01*
X024974Y008091D02*
X024283Y008091D01*
X024362Y008329D02*
X024974Y008329D01*
X024974Y008568D02*
X024362Y008568D01*
X024356Y008806D02*
X024974Y008806D01*
X024974Y009045D02*
X024606Y009045D01*
X024606Y009220D02*
X024208Y009220D01*
X024606Y009220D01*
X024606Y009283D02*
X025011Y009283D01*
X024651Y009522D02*
X026244Y009522D01*
X026244Y009760D02*
X024662Y009760D01*
X024662Y009999D02*
X026244Y009999D01*
X026244Y010237D02*
X024596Y010237D01*
X024253Y010476D02*
X026244Y010476D01*
X027144Y010476D02*
X027325Y010476D01*
X027325Y010714D02*
X027144Y010714D01*
X027144Y010237D02*
X027457Y010237D01*
X027480Y009999D02*
X027144Y009999D01*
X027144Y009760D02*
X027444Y009760D01*
X027444Y009522D02*
X027144Y009522D01*
X027144Y009283D02*
X027444Y009283D01*
X027444Y009045D02*
X027144Y009045D01*
X027016Y008806D02*
X027444Y008806D01*
X027444Y008568D02*
X026777Y008568D01*
X026539Y008329D02*
X027444Y008329D01*
X027444Y008091D02*
X026414Y008091D01*
X026690Y007852D02*
X027444Y007852D01*
X028744Y008329D02*
X031748Y008329D01*
X031510Y008568D02*
X029627Y008568D01*
X029639Y008574D02*
X029680Y008615D01*
X029709Y008665D01*
X029724Y008721D01*
X029724Y008870D01*
X029069Y008870D01*
X029069Y008870D01*
X029069Y008530D01*
X029532Y008530D01*
X029588Y008545D01*
X029639Y008574D01*
X029724Y008806D02*
X031271Y008806D01*
X031244Y008870D02*
X030194Y008870D01*
X029069Y008870D01*
X029068Y008806D02*
X029069Y008806D01*
X029068Y008568D02*
X029069Y008568D01*
X029394Y008820D02*
X029394Y008120D01*
X029048Y007852D02*
X030325Y007852D01*
X030395Y008091D02*
X028809Y008091D01*
X029286Y007614D02*
X029922Y007614D01*
X030179Y007614D02*
X030179Y007614D01*
X030179Y007375D02*
X030179Y007375D01*
X030179Y007220D02*
X030179Y007220D01*
X029833Y007220D02*
X029833Y007220D01*
X029781Y007375D02*
X029525Y007375D01*
X031467Y007375D02*
X033602Y007375D01*
X033364Y007614D02*
X031467Y007614D01*
X031462Y007852D02*
X033125Y007852D01*
X031987Y008091D02*
X031392Y008091D01*
X031467Y007137D02*
X033841Y007137D01*
X033844Y006898D02*
X031467Y006898D01*
X031641Y006660D02*
X033844Y006660D01*
X033844Y006421D02*
X031816Y006421D01*
X031820Y006183D02*
X033863Y006183D01*
X033894Y006120D02*
X034594Y005420D01*
X035294Y005420D01*
X035301Y005364D02*
X035629Y005364D01*
X035301Y005364D01*
X035289Y005229D02*
X032315Y005229D01*
X032133Y005467D02*
X034549Y005467D01*
X034272Y005706D02*
X031820Y005706D01*
X031807Y005944D02*
X034033Y005944D01*
X034824Y006426D02*
X035301Y006426D01*
X035301Y006364D01*
X035301Y006326D01*
X034924Y006326D01*
X034824Y006426D01*
X034829Y006421D02*
X035301Y006421D01*
X035301Y006364D02*
X035629Y006364D01*
X035301Y006364D01*
X035629Y006364D02*
X035629Y006364D01*
X035629Y006388D01*
X035629Y006388D01*
X035629Y006364D01*
X035629Y006364D01*
X035629Y005388D02*
X035629Y005364D01*
X035629Y005364D01*
X035629Y005364D01*
X035629Y005388D01*
X035629Y005388D01*
X034784Y005064D02*
X034784Y005064D01*
X034667Y004990D02*
X032344Y004990D01*
X032344Y004752D02*
X034291Y004752D01*
X034283Y004746D02*
X034283Y004746D01*
X034283Y004746D01*
X034064Y004513D02*
X032344Y004513D01*
X032341Y004275D02*
X033855Y004275D01*
X033724Y004036D02*
X032196Y004036D01*
X025964Y004513D02*
X025884Y004513D01*
X022543Y007196D02*
X022205Y007196D01*
X022044Y007196D01*
X022044Y007196D01*
X022543Y007196D01*
X022543Y007196D01*
X024208Y009220D02*
X024208Y009220D01*
X024507Y010714D02*
X025028Y010714D01*
X024974Y010953D02*
X024662Y010953D01*
X024662Y011191D02*
X024974Y011191D01*
X024974Y011430D02*
X024662Y011430D01*
X024565Y011668D02*
X024974Y011668D01*
X024974Y011907D02*
X024267Y011907D01*
X023710Y011907D02*
X023517Y011907D01*
X023517Y011668D02*
X023622Y011668D01*
X023525Y011430D02*
X023517Y011430D01*
X023517Y011391D02*
X023517Y012223D01*
X022961Y012223D01*
X022961Y011582D01*
X022976Y011526D01*
X023004Y011476D01*
X023045Y011435D01*
X023096Y011406D01*
X023152Y011391D01*
X023517Y011391D01*
X023055Y011430D02*
X021984Y011430D01*
X021984Y011668D02*
X022961Y011668D01*
X022961Y011907D02*
X021880Y011907D01*
X021834Y012145D02*
X022961Y012145D01*
X023517Y012145D02*
X023710Y012145D01*
X026414Y012320D02*
X026414Y012994D01*
X026357Y013130D01*
X026317Y013170D01*
X026407Y013170D01*
X027257Y012320D01*
X026414Y012320D01*
X026414Y012384D02*
X027194Y012384D01*
X026955Y012622D02*
X026414Y012622D01*
X026414Y012861D02*
X026717Y012861D01*
X026478Y013099D02*
X026370Y013099D01*
X024537Y014053D02*
X023408Y014053D01*
X023408Y014292D02*
X023603Y014292D01*
X023525Y014530D02*
X023408Y014530D01*
X023525Y014769D02*
X023267Y014769D01*
X023228Y015007D02*
X023532Y015007D01*
X023644Y015246D02*
X023346Y015246D01*
X023364Y015484D02*
X023644Y015484D01*
X023649Y015723D02*
X023364Y015723D01*
X023364Y015961D02*
X023798Y015961D01*
X024037Y016200D02*
X023344Y016200D01*
X023223Y016438D02*
X024275Y016438D01*
X024594Y015484D02*
X033538Y015484D01*
X033425Y015246D02*
X032204Y015246D01*
X032410Y015007D02*
X033425Y015007D01*
X032794Y014769D02*
X032793Y014769D01*
X032793Y014530D02*
X032794Y014530D01*
X033893Y013805D02*
X033894Y013805D01*
X033894Y013408D01*
X033944Y013408D01*
X033944Y013406D01*
X033857Y013320D01*
X033708Y013320D01*
X033705Y013328D01*
X033601Y013432D01*
X033559Y013449D01*
X033567Y013457D01*
X033571Y013452D01*
X033622Y013423D01*
X033678Y013408D01*
X033893Y013408D01*
X033893Y013805D01*
X033893Y013576D02*
X033894Y013576D01*
X033875Y013338D02*
X033695Y013338D01*
X035136Y012326D02*
X035236Y012426D01*
X035301Y012426D01*
X035301Y012364D01*
X035301Y012326D01*
X035136Y012326D01*
X035193Y012384D02*
X035301Y012384D01*
X035301Y012364D02*
X035629Y012364D01*
X035301Y012364D01*
X035629Y012364D02*
X035629Y012364D01*
X035629Y012388D01*
X035629Y012388D01*
X035629Y012364D01*
X035629Y012364D01*
X035629Y012384D02*
X035629Y012384D01*
X035629Y011388D02*
X035629Y011364D01*
X035301Y011364D01*
X035301Y011326D01*
X034936Y011326D01*
X034932Y011327D01*
X034846Y011326D01*
X034760Y011326D01*
X034757Y011325D01*
X034734Y011324D01*
X034836Y011426D01*
X035301Y011426D01*
X035301Y011364D01*
X035629Y011364D01*
X035629Y011364D01*
X035629Y011364D01*
X035629Y011388D01*
X035629Y011388D01*
X035301Y010426D02*
X034924Y010426D01*
X035024Y010326D01*
X035301Y010326D01*
X035301Y010364D01*
X035629Y010364D01*
X035629Y010364D01*
X035301Y010364D01*
X035301Y010426D01*
X035629Y010388D02*
X035629Y010364D01*
X035629Y010364D01*
X035629Y010388D01*
X035629Y010388D01*
X035629Y009388D02*
X035629Y009364D01*
X035301Y009364D01*
X035301Y009326D01*
X035124Y009326D01*
X035024Y009426D01*
X035301Y009426D01*
X035301Y009364D01*
X035629Y009364D01*
X035629Y009364D01*
X035629Y009364D01*
X035629Y009388D01*
X035629Y009388D01*
X035629Y008388D02*
X035629Y008364D01*
X035301Y008364D01*
X035301Y008326D01*
X035124Y008326D01*
X035024Y008426D01*
X035301Y008426D01*
X035301Y008364D01*
X035629Y008364D01*
X035629Y008364D01*
X035629Y008364D01*
X035629Y008388D01*
X035629Y008388D01*
X035301Y008329D02*
X035121Y008329D01*
X035144Y007426D02*
X035301Y007426D01*
X035301Y007364D01*
X035301Y007326D01*
X035144Y007326D01*
X035144Y007426D01*
X035144Y007375D02*
X035301Y007375D01*
X035301Y007364D02*
X035629Y007364D01*
X035301Y007364D01*
X035629Y007364D02*
X035629Y007364D01*
X035629Y007388D01*
X035629Y007388D01*
X035629Y007364D01*
X035629Y007364D01*
X035629Y007375D02*
X035629Y007375D01*
X022165Y013576D02*
X022022Y013576D01*
X022070Y013815D02*
X022117Y013815D01*
X022117Y014053D02*
X022070Y014053D01*
X022070Y014292D02*
X022117Y014292D01*
X022117Y014530D02*
X022070Y014530D01*
X022164Y014769D02*
X021929Y014769D01*
X020159Y015007D02*
X010020Y015007D01*
X009921Y015142D02*
X009921Y015142D01*
X009796Y015246D02*
X011578Y015246D01*
X010270Y014662D02*
X010270Y014662D01*
X010193Y014769D02*
X019602Y014769D01*
X019407Y014530D02*
X010323Y014530D01*
X010417Y014292D02*
X019399Y014292D01*
X019399Y014053D02*
X010496Y014053D01*
X010526Y013815D02*
X019438Y013815D01*
X020377Y013576D02*
X010556Y013576D01*
X006588Y015246D02*
X005515Y015246D01*
X005423Y015007D02*
X006364Y015007D01*
X006276Y014913D02*
X006276Y014913D01*
X006197Y014769D02*
X001814Y014769D01*
X001814Y014530D02*
X006066Y014530D01*
X005990Y014392D02*
X005990Y014392D01*
X005964Y014292D02*
X004358Y014292D01*
X004376Y014284D02*
X004044Y014421D01*
X003686Y014421D01*
X003355Y014284D01*
X003101Y014031D01*
X002964Y013699D01*
X002964Y013341D01*
X003101Y013009D01*
X003355Y012756D01*
X003686Y012619D01*
X004044Y012619D01*
X004376Y012756D01*
X004629Y013009D01*
X004767Y013341D01*
X004767Y013699D01*
X004629Y014031D01*
X004376Y014284D01*
X004607Y014053D02*
X005903Y014053D01*
X005842Y013815D02*
X004719Y013815D01*
X004767Y013576D02*
X005842Y013576D01*
X005842Y013338D02*
X004765Y013338D01*
X004667Y013099D02*
X005874Y013099D01*
X005935Y012861D02*
X004481Y012861D01*
X004053Y012622D02*
X006004Y012622D01*
X006135Y012384D02*
X001814Y012384D01*
X001814Y012622D02*
X003677Y012622D01*
X003250Y012861D02*
X002625Y012861D01*
X002831Y013099D02*
X003064Y013099D01*
X002965Y013338D02*
X002930Y013338D01*
X002936Y013576D02*
X002964Y013576D01*
X003011Y013815D02*
X002883Y013815D01*
X002752Y014053D02*
X003123Y014053D01*
X003372Y014292D02*
X002432Y014292D01*
X001814Y012145D02*
X003800Y012145D01*
X003553Y011907D02*
X002870Y011907D01*
X002904Y011668D02*
X003535Y011668D01*
X003535Y011430D02*
X002210Y011430D01*
X002210Y011199D02*
X002904Y011199D01*
X002904Y010814D01*
X002889Y010758D01*
X002860Y010708D01*
X002819Y010667D01*
X002769Y010638D01*
X002713Y010623D01*
X002210Y010623D01*
X002210Y011199D01*
X002210Y011191D02*
X001977Y011191D01*
X001977Y010953D02*
X002210Y010953D01*
X002904Y010953D02*
X003535Y010953D01*
X003535Y011191D02*
X002904Y011191D01*
X002864Y010714D02*
X003557Y010714D01*
X002210Y010714D02*
X001977Y010714D01*
X001977Y011668D02*
X002210Y011668D01*
X002210Y011907D02*
X001977Y011907D01*
X005190Y012145D02*
X006266Y012145D01*
X006276Y012127D02*
X006276Y012127D01*
X006483Y011907D02*
X005437Y011907D01*
X005456Y011668D02*
X006724Y011668D01*
X006683Y011694D02*
X006683Y011694D01*
X007099Y011430D02*
X005456Y011430D01*
X005456Y011191D02*
X007765Y011191D01*
X014914Y005706D02*
X017319Y005706D01*
X017319Y005467D02*
X014914Y005467D01*
X014914Y005229D02*
X017319Y005229D01*
X017041Y004990D02*
X014914Y004990D01*
X014914Y004752D02*
X016828Y004752D01*
X016692Y004513D02*
X014914Y004513D01*
X014914Y004275D02*
X016628Y004275D01*
X016605Y004036D02*
X014914Y004036D01*
X014914Y003798D02*
X016619Y003798D01*
X016683Y003559D02*
X014914Y003559D01*
X014914Y003321D02*
X016810Y003321D01*
X017009Y003082D02*
X014914Y003082D01*
X014914Y002844D02*
X017169Y002844D01*
X017169Y002605D02*
X014914Y002605D01*
X014914Y002367D02*
X017169Y002367D01*
X017189Y002128D02*
X014914Y002128D01*
X014914Y001890D02*
X017439Y001890D01*
X024544Y015246D02*
X028083Y015246D01*
X034417Y016438D02*
X034599Y016438D01*
X034531Y016290D02*
X034531Y016290D01*
D41*
X023294Y012320D02*
X023268Y012294D01*
D42*
X018394Y011020D02*
X016194Y011020D01*
X015594Y011020D01*
X006894Y011020D01*
X006594Y011320D01*
X005894Y011320D01*
X004494Y011320D01*
X004489Y011315D01*
X002094Y011315D01*
X003314Y015725D02*
X003609Y016020D01*
X011794Y016020D01*
X012094Y015720D01*
X020694Y015720D01*
X021694Y015720D01*
D43*
X035094Y015320D02*
X035594Y015320D01*
X036094Y015320D01*
X036108Y015305D01*
X036194Y015305D01*
X036208Y015320D01*
X036694Y015320D01*
X037646Y015620D02*
X037794Y015620D01*
X037994Y015420D01*
X037994Y016020D01*
D44*
X027379Y004170D02*
X027379Y003955D01*
X027194Y003770D01*
X027194Y002620D01*
X027294Y002520D01*
X026944Y002320D02*
X026944Y003770D01*
X026844Y003870D01*
X026844Y003970D01*
X027894Y002385D02*
X027879Y002370D01*
M02*
